<svg id="Calque_1" data-name="Calque 1" xmlns="http://www.w3.org/2000/svg" viewBox="0 0 125 55"><defs><style>.cls-1{fill:#221f20;}</style></defs><title>wiko-logo</title><path class="cls-1" d="M50.85,17.73c-1,3.42-2.51,9.08-4,14-.84,2.74-1.76,5.7-2.36,7.07a4.57,4.57,0,0,1-8.27,0c-.75-1.75-2.29-6.79-2.92-8.59a1.82,1.82,0,0,0-3.38,0c-.65,1.79-1.75,6.81-2.44,8.59a4.06,4.06,0,0,1-3.81,2.62,4.18,4.18,0,0,1-3.82-2.62c-.36-.85-5.36-13.19-5.58-13.77a3.39,3.39,0,0,1-.31-1.26,2.72,2.72,0,0,1,2.72-2.73A2.69,2.69,0,0,1,19.27,23c.62,2.22,2.41,9.73,2.62,10.52a1.82,1.82,0,0,0,3.52,0c0,.13,3-11.67,3.58-13.45a2.73,2.73,0,0,1,5.2,0h0c.34,1,3.17,10.45,4.06,13.45A1.84,1.84,0,0,0,40,34.88a1.8,1.8,0,0,0,1.76-1.36c1-4.21,3.81-17.15,3.81-17.15a2.73,2.73,0,0,1,5.41.48,3.18,3.18,0,0,1-.14.88"/><path class="cls-1" d="M57.34,18.17c-2.32,0-2.32,2-2.32,3.67V37.78c0,1.63,0,3.65,2.32,3.65s2.32-2,2.32-3.65V21.84c0-1.55,0-3.67-2.32-3.67"/><path class="cls-1" d="M99.68,18.22C93,18.22,88.37,23,88.37,29.85c0,7.12,4.33,11.54,11.31,11.54S111,37.08,111,29.85c0-7-4.55-11.63-11.32-11.63m0,3.79c3.3,0,6.72,2.93,6.72,7.85,0,5.71-3.62,7.74-6.72,7.74S93,35.57,93,29.86C93,24.94,96.38,22,99.68,22Z"/><path class="cls-1" d="M81.9,40.34a6.14,6.14,0,0,0,.54.58,2.29,2.29,0,0,0,3.34-.42,2.39,2.39,0,0,0-.11-3.06l-6.61-7.07a1.82,1.82,0,0,1-.45-1.21,2.17,2.17,0,0,1,.59-1.34l4.55-5.21c.93-1,2.19-2.44.65-3.82s-2.76,0-3.74,1.05c0,0-2,2.22-2.34,2.61l-1.08,1.17a13,13,0,0,1-3.06,2.74,1.87,1.87,0,0,1-2-.17,1.8,1.8,0,0,1-.66-1.43v-2.9c0-1.56,0-3.69-2.34-3.69s-2.33,2-2.33,3.69V37.77c0,1.56,0,3.69,2.34,3.69s2.33-2,2.33-3.69V34a3.23,3.23,0,0,1,.38-2.09,1.87,1.87,0,0,1,1.56-.7,2,2,0,0,1,1.45.87c.39.46,1.67,1.93,2.84,3.35Z"/></svg>